<svg width="206" height="39" viewBox="0 0 206 39" fill="none" xmlns="http://www.w3.org/2000/svg">
<path d="M74.0156 0.65625C74.0156 1.04688 73.7734 1.24219 73.2891 1.24219H72.9609C72.4766 1.17969 71.8672 1.14844 71.1328 1.14844C67.5391 1.14844 63.2031 2.76562 58.125 6C55.2344 7.84375 52.8125 9.73437 50.8594 11.6719C48.8438 13.6562 45.4453 17.5547 40.6641 23.3672C34.8828 30.3828 30.3672 35.0859 27.1172 37.4766C26.0391 38.2734 25.4141 38.6719 25.2422 38.6719C25.1641 38.6719 25.1172 38.6406 25.1016 38.5781C25.1016 38.5625 25.3281 38.3281 25.7812 37.875C27.7656 35.8594 29.8125 31.9375 31.9219 26.1094C33.8125 20.9062 35.3047 17.1094 36.3984 14.7188C37.5078 12.3281 38.6875 10.3359 39.9375 8.74219C40.2344 8.36719 40.3828 8.15625 40.3828 8.10938C40.2734 8.07813 40.1562 8.14062 40.0312 8.29688L39.7969 8.53125L39.2109 9.25781C38.1953 10.5234 35.8125 13.625 32.0625 18.5625C26.1406 26.5781 20.9453 32.3438 16.4766 35.8594C14.0703 37.7344 12.6719 38.6719 12.2812 38.6719C12.2031 38.6406 12.1562 38.5938 12.1406 38.5312C12.1406 38.4844 12.2422 38.375 12.4453 38.2031C15.5078 35.4062 18.4375 31.2109 21.2344 25.6172C24.0469 20.0078 25.4531 15.5312 25.4531 12.1875C25.4531 9.90625 24.8984 8.10156 23.7891 6.77344C22.6797 5.42969 21.1641 4.75781 19.2422 4.75781C15.1953 4.75781 11.1719 7.01562 7.17188 11.5312C3.1875 16.0469 1.19531 20.6016 1.19531 25.1953C1.19531 27.1016 1.71094 28.6406 2.74219 29.8125C3.78906 30.9844 5.14844 31.5703 6.82031 31.5703C10.3516 31.5703 13.6953 29.1562 16.8516 24.3281C18.8984 21.1875 19.9219 18.3906 19.9219 15.9375C19.9219 14.7812 19.6328 13.8516 19.0547 13.1484C18.4922 12.4453 17.7422 12.0938 16.8047 12.0938C16.2422 12.0938 15.6953 12.2344 15.1641 12.5156C14.6328 12.7812 14.3672 13.0547 14.3672 13.3359C14.3672 13.4297 14.4141 13.4766 14.5078 13.4766C14.5547 13.4766 14.6328 13.4609 14.7422 13.4297C15.1328 13.3672 15.3906 13.3359 15.5156 13.3359C16.2188 13.3359 16.5703 13.7344 16.5703 14.5312C16.5703 15.0156 16.3828 15.4375 16.0078 15.7969C15.6328 16.1406 15.1953 16.3125 14.6953 16.3125C13.7266 16.3125 13.2422 15.7891 13.2422 14.7422C13.2422 13.9141 13.6016 13.1953 14.3203 12.5859C15.0391 11.9609 15.8672 11.6484 16.8047 11.6484C17.8828 11.6484 18.7422 12.0391 19.3828 12.8203C20.0391 13.6016 20.3672 14.6406 20.3672 15.9375C20.3672 18.875 19.0234 22.1875 16.3359 25.875C13.3516 29.9375 10.1641 31.9688 6.77344 31.9688C4.80469 31.9688 3.17969 31.2188 1.89844 29.7188C0.632812 28.2031 0 26.2969 0 24C0 21.8438 0.570312 19.5938 1.71094 17.25C2.86719 14.9062 4.44531 12.7734 6.44531 10.8516C10.9297 6.49219 15.2344 4.3125 19.3594 4.3125C21.7812 4.3125 23.8125 5.26563 25.4531 7.17188C27.1094 9.07812 27.9375 11.4219 27.9375 14.2031C27.9375 17.1875 26.7031 20.8125 24.2344 25.0781C21.7656 29.3281 18.7734 32.9844 15.2578 36.0469C14.9141 36.3594 14.7422 36.5312 14.7422 36.5625C14.7578 36.625 14.7891 36.6562 14.8359 36.6562C15.3203 36.6562 16.875 35.2969 19.5 32.5781C23.2188 28.7188 28.2422 22.625 34.5703 14.2969C36.3828 11.9062 38.1641 9.76563 39.9141 7.875C41.6641 5.98437 42.7422 5.03906 43.1484 5.03906C43.2422 5.03906 43.2891 5.08594 43.2891 5.17969C43.2891 5.22656 43.2422 5.30469 43.1484 5.41406C42.1641 6.72656 41.3672 8.0625 40.7578 9.42188C40.0703 10.9688 39.0312 13.875 37.6406 18.1406C36.1094 22.7969 34.7188 26.3438 33.4688 28.7812C32.1562 31.2969 30.5078 33.5703 28.5234 35.6016C28.4922 35.6641 28.4609 35.7188 28.4297 35.7656C28.4453 35.8125 28.4766 35.8438 28.5234 35.8594C28.7891 35.8594 29.9062 34.8359 31.875 32.7891C33.25 31.3672 37.0938 26.8359 43.4062 19.1953C46.6719 15.2422 49.5938 12.125 52.1719 9.84375C54.75 7.54688 57.6484 5.5 60.8672 3.70312C65.2578 1.23438 69.0859 0 72.3516 0C73.4609 0 74.0156 0.21875 74.0156 0.65625ZM53.3203 28.8516C53.3203 28.8984 53.1797 29.1016 52.8984 29.4609L51.8906 30.7266C48.6562 34.7266 45.8828 36.7266 43.5703 36.7266C42.4766 36.7266 41.5547 36.3359 40.8047 35.5547C40.0703 34.7578 39.7031 33.7656 39.7031 32.5781C39.7031 29.7656 41.6641 27.2891 45.5859 25.1484C47.6484 24.0234 49.3281 23.4609 50.625 23.4609C51.1875 23.4609 51.6641 23.6328 52.0547 23.9766C52.4609 24.3047 52.6641 24.7109 52.6641 25.1953C52.6641 26.3203 51.9297 27.2812 50.4609 28.0781C48.9922 28.8594 46.5391 29.5938 43.1016 30.2812C42.0391 31.8906 41.5078 33.2344 41.5078 34.3125C41.5078 35.6562 42.2344 36.3281 43.6875 36.3281C46.1562 36.3281 49.1797 33.9141 52.7578 29.0859C52.9453 28.8359 53.1016 28.7109 53.2266 28.7109C53.2891 28.7266 53.3203 28.7734 53.3203 28.8516ZM51.3516 24.5156C51.3516 24.0156 51.0781 23.7656 50.5312 23.7656C49.7031 23.7656 48.6094 24.3438 47.25 25.5C45.9062 26.6406 44.5859 28.125 43.2891 29.9531C45.5391 29.375 47.4453 28.5625 49.0078 27.5156C50.5703 26.4531 51.3516 25.4531 51.3516 24.5156ZM65.625 12.2344C59.0625 23.1562 55.2344 29.5781 54.1406 31.5C53.0625 33.4219 52.5234 34.6953 52.5234 35.3203C52.5234 36.0234 52.8203 36.375 53.4141 36.375C54.7266 36.375 57.1328 33.8984 60.6328 28.9453C60.7109 28.7891 60.8047 28.7109 60.9141 28.7109C60.9766 28.7266 61.0078 28.7734 61.0078 28.8516C61.0078 28.9453 60.9297 29.0703 60.7734 29.2266L59.7656 30.6094C56.8125 34.6875 54.6328 36.7266 53.2266 36.7266C52.5547 36.7266 52 36.4766 51.5625 35.9766C51.1406 35.4609 50.9297 34.8125 50.9297 34.0312C50.9297 33.1719 51.125 32.3438 51.5156 31.5469C51.9219 30.7344 53.2812 28.4062 55.5938 24.5625C58.4219 19.8594 60.8047 15.7812 62.7422 12.3281C63.2109 12.4531 63.625 12.5156 63.9844 12.5156C64.5781 12.5156 65.125 12.4219 65.625 12.2344ZM72.6328 28.8516C72.6328 29.0547 71.5312 30.3672 69.3281 32.7891C66.9219 35.4141 64.875 36.7266 63.1875 36.7266C62.0938 36.7266 61.1562 36.3125 60.375 35.4844C59.5938 34.6406 59.2031 33.6406 59.2031 32.4844C59.2031 31.1719 59.7344 29.8125 60.7969 28.4062C61.8594 27 63.2891 25.7891 65.0859 24.7734C66.6016 23.8984 67.8359 23.4609 68.7891 23.4609C69.9453 23.4609 70.5234 24.1484 70.5234 25.5234C70.5234 26.6016 70.1562 27.6797 69.4219 28.7578C68.7031 29.8359 67.9844 30.375 67.2656 30.375C66.5625 30.375 66.2109 30.0234 66.2109 29.3203C66.2109 28.4922 66.9297 27.7266 68.3672 27.0234C69.4766 26.4766 70.0312 25.7578 70.0312 24.8672C70.0312 24.1641 69.6484 23.8125 68.8828 23.8125C67.5859 23.8125 65.9922 25.1016 64.1016 27.6797C62.2109 30.2578 61.2656 32.4219 61.2656 34.1719C61.2656 35.6406 61.9531 36.375 63.3281 36.375C65.4844 36.375 68.4062 33.9453 72.0938 29.0859C72.2969 28.8359 72.4453 28.7109 72.5391 28.7109C72.6016 28.7266 72.6328 28.7734 72.6328 28.8516ZM86.5078 28.8047C86.5078 29.0547 86.0469 29.6406 85.125 30.5625C83.75 31.9375 82.4844 32.625 81.3281 32.625C80.8438 32.625 80.4141 32.5312 80.0391 32.3438C77.9766 35.2656 76.0391 36.7266 74.2266 36.7266C73.2891 36.7266 72.4844 36.3438 71.8125 35.5781C71.1562 34.7969 70.8281 33.8672 70.8281 32.7891C70.8281 30.3828 72.4062 28.0625 75.5625 25.8281C77.7812 24.25 79.6094 23.4609 81.0469 23.4609C82.3906 23.4609 83.0625 24.1797 83.0625 25.6172C83.0625 27.4141 82.1172 29.5781 80.2266 32.1094C80.5391 32.2969 80.8906 32.3906 81.2812 32.3906C81.9844 32.3906 82.8047 32.0625 83.7422 31.4062C84.6797 30.75 85.4453 29.9609 86.0391 29.0391C86.2109 28.8203 86.3359 28.7109 86.4141 28.7109C86.4766 28.7109 86.5078 28.7422 86.5078 28.8047ZM82.7109 25.6641C82.7109 24.3984 82.1406 23.7656 81 23.7656C79.5781 23.7656 77.8438 25.125 75.7969 27.8438C73.75 30.5625 72.7266 32.8516 72.7266 34.7109C72.7266 35.7891 73.2422 36.3281 74.2734 36.3281C75.9609 36.3281 77.8047 34.9375 79.8047 32.1562C79.3516 31.6562 79.125 31.1406 79.125 30.6094C79.125 29.8438 79.4297 29.0547 80.0391 28.2422C80.6484 27.4297 81.2422 27.0234 81.8203 27.0234C82.0703 27.0234 82.2422 27.1797 82.3359 27.4922C82.5859 26.9453 82.7109 26.3359 82.7109 25.6641ZM112.617 28.8516C112.602 28.8984 112.523 29.0234 112.383 29.2266L111.375 30.6094C108.438 34.6875 106.266 36.7266 104.859 36.7266C104.125 36.7266 103.523 36.4531 103.055 35.9062C102.586 35.3594 102.352 34.6562 102.352 33.7969C102.352 32.9219 102.648 31.9766 103.242 30.9609C103.352 30.7734 103.922 29.9375 104.953 28.4531C106.266 26.5781 106.922 25.3516 106.922 24.7734C106.922 24.1328 106.602 23.8125 105.961 23.8125C103.898 23.8125 100.359 28.0469 95.3438 36.5156C95.0312 36.4531 94.6016 36.4219 94.0547 36.4219C93.4141 36.4219 92.8672 36.4531 92.4141 36.5156L95.7422 31.2422C97.9141 27.7734 99 25.6484 99 24.8672C99 24.1641 98.7109 23.8125 98.1328 23.8125C97.2734 23.8125 95.8672 25.0469 93.9141 27.5156C91.9609 29.9844 90.0234 32.9844 88.1016 36.5156C87.7422 36.4531 87.2812 36.4219 86.7188 36.4219C86.1094 36.4219 85.5781 36.4531 85.125 36.5156L88.4766 31.2422C90.7891 27.6172 91.9453 25.375 91.9453 24.5156C91.9453 24.0469 91.7656 23.8125 91.4062 23.8125C90.6406 23.8125 89.0547 25.4922 86.6484 28.8516C86.4922 29.0703 86.3672 29.1797 86.2734 29.1797C86.2109 29.1641 86.1797 29.1172 86.1797 29.0391C86.1797 28.8984 86.8984 27.9219 88.3359 26.1094C89.7422 24.3438 90.8281 23.4609 91.5938 23.4609C92.0938 23.4609 92.5234 23.7031 92.8828 24.1875C93.2422 24.6562 93.4219 25.2188 93.4219 25.875C93.4219 26.7812 92.9609 28.0391 92.0391 29.6484C94.8516 25.5234 96.9453 23.4609 98.3203 23.4609C98.9766 23.4609 99.5156 23.7266 99.9375 24.2578C100.359 24.7891 100.57 25.4531 100.57 26.25C100.57 27.1406 100.156 28.2734 99.3281 29.6484C102.297 25.5234 104.523 23.4609 106.008 23.4609C106.68 23.4609 107.242 23.75 107.695 24.3281C108.164 24.9062 108.398 25.6094 108.398 26.4375C108.398 27.4062 108.016 28.5391 107.25 29.8359C107.234 29.8516 106.562 30.8516 105.234 32.8359C104.469 33.9609 104.086 34.8203 104.086 35.4141C104.086 36.0547 104.406 36.375 105.047 36.375C106.266 36.375 108.281 34.4062 111.094 30.4688L111.82 29.4609L112.242 28.9453C112.32 28.7891 112.398 28.7109 112.477 28.7109C112.57 28.7109 112.617 28.7578 112.617 28.8516ZM124.477 28.8516C124.477 28.8984 124.336 29.1016 124.055 29.4609L123.047 30.7266C119.812 34.7266 117.039 36.7266 114.727 36.7266C113.633 36.7266 112.711 36.3359 111.961 35.5547C111.227 34.7578 110.859 33.7656 110.859 32.5781C110.859 29.7656 112.82 27.2891 116.742 25.1484C118.805 24.0234 120.484 23.4609 121.781 23.4609C122.344 23.4609 122.82 23.6328 123.211 23.9766C123.617 24.3047 123.82 24.7109 123.82 25.1953C123.82 26.3203 123.086 27.2812 121.617 28.0781C120.148 28.8594 117.695 29.5938 114.258 30.2812C113.195 31.8906 112.664 33.2344 112.664 34.3125C112.664 35.6562 113.391 36.3281 114.844 36.3281C117.312 36.3281 120.336 33.9141 123.914 29.0859C124.102 28.8359 124.258 28.7109 124.383 28.7109C124.445 28.7266 124.477 28.7734 124.477 28.8516ZM122.508 24.5156C122.508 24.0156 122.234 23.7656 121.688 23.7656C120.859 23.7656 119.766 24.3438 118.406 25.5C117.062 26.6406 115.742 28.125 114.445 29.9531C116.695 29.375 118.602 28.5625 120.164 27.5156C121.727 26.4531 122.508 25.4531 122.508 24.5156ZM145.547 12.5156L135.023 29.1328C136.664 26.8828 137.891 25.375 138.703 24.6094C139.516 23.8438 140.289 23.4609 141.023 23.4609C141.898 23.4609 142.609 23.8203 143.156 24.5391C143.719 25.2422 144 26.1328 144 27.2109C144 29.5703 142.5 31.8906 139.5 34.1719C137.266 35.875 135.281 36.7266 133.547 36.7266C132.734 36.7266 132.07 36.4219 131.555 35.8125C131.055 35.1875 130.805 34.3828 130.805 33.3984C130.805 32.2266 131.555 30.4375 133.055 28.0312L142.758 12.4688C143.18 12.5938 143.633 12.6562 144.117 12.6562C144.492 12.6562 144.969 12.6094 145.547 12.5156ZM142.289 25.3828C142.289 24.3359 141.852 23.8125 140.977 23.8125C139.836 23.8125 137.891 25.6953 135.141 29.4609C133.078 32.2734 132.047 34.1641 132.047 35.1328C132.047 35.9609 132.453 36.375 133.266 36.375C134.672 36.375 136.523 34.9766 138.82 32.1797C141.133 29.3672 142.289 27.1016 142.289 25.3828ZM162.094 28.8516C162.094 29.1797 160.953 30.6953 158.672 33.3984C156.828 35.6172 155.375 36.7266 154.312 36.7266C153.594 36.7266 153.008 36.4609 152.555 35.9297C152.102 35.3828 151.875 34.7031 151.875 33.8906C151.875 33.0469 152.125 32.1328 152.625 31.1484C151.062 33.3359 149.867 34.8125 149.039 35.5781C148.211 36.3438 147.406 36.7266 146.625 36.7266C145.797 36.7266 145.102 36.375 144.539 35.6719C143.977 34.9531 143.695 34.0547 143.695 32.9766C143.695 29.9766 145.812 27.3203 150.047 25.0078C151.906 23.9766 153.406 23.4609 154.547 23.4609C155.516 23.4609 156 23.9297 156 24.8672C156 25.1328 155.938 25.4844 155.812 25.9219L157.008 23.6484C157.477 23.7578 157.891 23.8125 158.25 23.8125C158.672 23.8125 159.219 23.7578 159.891 23.6484L155.742 30.5156C154.305 32.9219 153.586 34.5078 153.586 35.2734C153.586 36.0078 153.891 36.375 154.5 36.375C155.125 36.375 156.125 35.6641 157.5 34.2422C158.875 32.8047 160.273 31.0391 161.695 28.9453C161.789 28.7891 161.875 28.7109 161.953 28.7109C162.047 28.7109 162.094 28.7578 162.094 28.8516ZM155.648 24.9609C155.648 24.1953 155.297 23.8125 154.594 23.8125C153.156 23.8125 151.266 25.2188 148.922 28.0312C146.594 30.8438 145.43 33.1172 145.43 34.8516C145.43 35.8672 145.883 36.375 146.789 36.375C147.867 36.375 149.734 34.5859 152.391 31.0078C154.562 28.0703 155.648 26.0547 155.648 24.9609ZM173.789 28.8516C173.789 29.0547 172.688 30.3672 170.484 32.7891C168.078 35.4141 166.031 36.7266 164.344 36.7266C163.25 36.7266 162.312 36.3125 161.531 35.4844C160.75 34.6406 160.359 33.6406 160.359 32.4844C160.359 31.1719 160.891 29.8125 161.953 28.4062C163.016 27 164.445 25.7891 166.242 24.7734C167.758 23.8984 168.992 23.4609 169.945 23.4609C171.102 23.4609 171.68 24.1484 171.68 25.5234C171.68 26.6016 171.312 27.6797 170.578 28.7578C169.859 29.8359 169.141 30.375 168.422 30.375C167.719 30.375 167.367 30.0234 167.367 29.3203C167.367 28.4922 168.086 27.7266 169.523 27.0234C170.633 26.4766 171.188 25.7578 171.188 24.8672C171.188 24.1641 170.805 23.8125 170.039 23.8125C168.742 23.8125 167.148 25.1016 165.258 27.6797C163.367 30.2578 162.422 32.4219 162.422 34.1719C162.422 35.6406 163.109 36.375 164.484 36.375C166.641 36.375 169.562 33.9453 173.25 29.0859C173.453 28.8359 173.602 28.7109 173.695 28.7109C173.758 28.7266 173.789 28.7734 173.789 28.8516ZM186.234 12.2344C186.109 12.4531 185.914 12.7734 185.648 13.1953C185.242 13.8516 184.633 14.8281 183.82 16.125C183.43 16.7969 182.828 17.8047 182.016 19.1484L177.984 25.6641C176.641 27.8359 175.5 29.8047 174.562 31.5703C173.516 33.5391 172.672 35.0625 172.031 36.1406L171.727 36.6094C171.305 36.5156 170.891 36.4688 170.484 36.4688C170.141 36.4688 169.633 36.5156 168.961 36.6094C169.32 36 169.719 35.3125 170.156 34.5469L172.875 29.8125C173.281 29.1094 173.891 28.0469 174.703 26.625L183.305 12.2344C183.945 12.3594 184.422 12.4219 184.734 12.4219C185.047 12.4219 185.547 12.3594 186.234 12.2344ZM188.25 28.8516C188.234 28.8984 188.156 29.0234 188.016 29.2266L187.008 30.6094C184.055 34.6875 181.828 36.7266 180.328 36.7266C179.656 36.7266 179.062 36.5 178.547 36.0469C178.031 35.5938 177.773 35.0781 177.773 34.5C177.773 34 178.211 32.8828 179.086 31.1484L179.109 31.0547C179.406 30.4766 179.555 30.0469 179.555 29.7656C179.555 29.4219 179.297 29.1016 178.781 28.8047C178.188 29.0547 177.695 29.1797 177.305 29.1797C176.758 29.1797 176.484 29.0234 176.484 28.7109C176.484 28.4453 176.742 28.3125 177.258 28.3125C177.758 28.3125 178.219 28.3906 178.641 28.5469C179.422 28.2031 180.672 27.0391 182.391 25.0547C183.312 23.9922 184.258 23.4609 185.227 23.4609C186.414 23.4609 187.008 24.0234 187.008 25.1484C187.008 25.8984 186.703 26.6484 186.094 27.3984C185.5 28.1328 184.906 28.5 184.312 28.5C183.641 28.5 183.305 28.1953 183.305 27.5859C183.305 27.0234 183.812 26.4219 184.828 25.7812C185.25 25.5156 185.461 25.1406 185.461 24.6562C185.461 24.2812 185.219 24.0938 184.734 24.0938C184.062 24.0938 183.219 24.6875 182.203 25.875C180.906 27.3594 179.852 28.2812 179.039 28.6406C180.664 29.3906 181.477 30.2578 181.477 31.2422C181.477 31.7891 181.094 32.8438 180.328 34.4062C180 35.0625 179.836 35.5156 179.836 35.7656C179.836 36.1719 180.094 36.375 180.609 36.375C182.078 36.375 184.477 33.8984 187.805 28.9453C187.914 28.7891 188.016 28.7109 188.109 28.7109C188.203 28.7109 188.25 28.7578 188.25 28.8516ZM205.031 10.3125C205.031 11.0313 203.242 13.8672 199.664 18.8203C195.742 24.2109 193.148 28.1797 191.883 30.7266C191.789 30.9141 191.68 31.0078 191.555 31.0078C191.414 31.0078 191.344 30.9297 191.344 30.7734C191.344 30.7266 191.445 30.5625 191.648 30.2812C193.242 27.9375 195.836 22.6562 199.43 14.4375C200.336 12.3438 201.094 10.9062 201.703 10.125C202.312 9.32812 202.977 8.92969 203.695 8.92969C204.586 8.92969 205.031 9.39063 205.031 10.3125ZM191.602 33.4453C191.602 34.1484 191.281 34.8203 190.641 35.4609C190 36.1016 189.344 36.4219 188.672 36.4219C188 36.4219 187.664 36.0703 187.664 35.3672C187.664 34.7266 188 34.0859 188.672 33.4453C189.344 32.8047 190.016 32.4844 190.688 32.4844C191.297 32.4844 191.602 32.8047 191.602 33.4453Z" fill="#741C21"/>
</svg>
